<svg width="152" height="113" viewBox="0 0 152 113" fill="none" xmlns="http://www.w3.org/2000/svg">
<path d="M66.5 113C66.5 113 57 113 57 103.583C57 94.1667 66.5 65.9167 104.5 65.9167C142.5 65.9167 152 94.1667 152 103.583C152 113 142.5 113 142.5 113H66.5ZM104.5 56.5C112.059 56.5 119.308 53.5237 124.653 48.2258C129.997 42.9279 133 35.7424 133 28.25C133 20.7576 129.997 13.5721 124.653 8.27423C119.308 2.97633 112.059 0 104.5 0C96.9413 0 89.6922 2.97633 84.3475 8.27423C79.0027 13.5721 76 20.7576 76 28.25C76 35.7424 79.0027 42.9279 84.3475 48.2258C89.6922 53.5237 96.9413 56.5 104.5 56.5Z" fill="#B52022"/>
<path fill-rule="evenodd" clip-rule="evenodd" d="M49.552 113C48.1437 110.06 47.4413 106.837 47.5 103.583C47.5 90.8238 53.96 77.6875 65.892 68.5533C59.9364 66.7344 53.7315 65.8449 47.5 65.9167C9.5 65.9167 0 94.1667 0 103.583C0 113 9.5 113 9.5 113H49.552Z" fill="#B52022"/>
<path d="M42.75 56.5C49.0489 56.5 55.0898 54.0197 59.5438 49.6048C63.9978 45.1899 66.5 39.202 66.5 32.9583C66.5 26.7147 63.9978 20.7268 59.5438 16.3119C55.0898 11.8969 49.0489 9.41667 42.75 9.41667C36.4511 9.41667 30.4102 11.8969 25.9562 16.3119C21.5022 20.7268 19 26.7147 19 32.9583C19 39.202 21.5022 45.1899 25.9562 49.6048C30.4102 54.0197 36.4511 56.5 42.75 56.5Z" fill="#B52022"/>
</svg>
