<svg width="140" height="139" viewBox="0 0 140 139" fill="none" xmlns="http://www.w3.org/2000/svg">
<path fill-rule="evenodd" clip-rule="evenodd" d="M42.8914 5.41009C34.3073 8.99082 26.5314 14.2405 20.0215 20.85H70.0049C71.8613 20.85 73.6417 21.5823 74.9543 22.8856C76.267 24.189 77.0044 25.9568 77.0044 27.8C77.0044 29.6433 76.267 31.411 74.9543 32.7144C73.6417 34.0178 71.8613 34.75 70.0049 34.75H9.3822C2.02808 47.3601 -1.12939 61.9535 0.359838 76.45H77.0044C78.8608 76.45 80.6412 77.1822 81.9538 78.4856C83.2665 79.789 84.0039 81.5567 84.0039 83.4C84.0039 85.2432 83.2665 87.011 81.9538 88.3144C80.6412 89.6178 78.8608 90.35 77.0044 90.35H3.21564C4.74868 95.1938 6.81432 99.8552 9.3752 104.25H63.0054C64.8618 104.25 66.6422 104.982 67.9548 106.286C69.2675 107.589 70.0049 109.357 70.0049 111.2C70.0049 113.043 69.2675 114.811 67.9548 116.114C66.6422 117.418 64.8618 118.15 63.0054 118.15H20.0215C26.5312 124.76 34.307 130.01 42.8911 133.59C51.4752 137.171 60.6941 139.01 70.0049 139C108.663 139 140 107.885 140 69.5C140 67.1579 139.881 64.8435 139.65 62.55H91.0034C89.1471 62.55 87.3667 61.8178 86.0541 60.5144C84.7414 59.211 84.0039 57.4433 84.0039 55.6C84.0039 53.7568 84.7414 51.989 86.0541 50.6856C87.3667 49.3822 89.1471 48.65 91.0034 48.65H136.794C127.87 20.4539 101.356 4.15328e-05 70.0049 4.15328e-05C60.6941 -0.0100786 51.4754 1.82936 42.8914 5.41009ZM51.0566 50.6856C52.3693 49.3822 54.1496 48.65 56.006 48.65H70.005C71.8614 48.65 73.6418 49.3822 74.9544 50.6856C76.2671 51.989 77.0045 53.7567 77.0045 55.6C77.0045 57.4432 76.2671 59.211 74.9544 60.5144C73.6418 61.8177 71.8614 62.55 70.005 62.55H56.006C54.1496 62.55 52.3693 61.8177 51.0566 60.5144C49.744 59.211 49.0065 57.4432 49.0065 55.6C49.0065 53.7567 49.744 51.989 51.0566 50.6856ZM35.0145 62.5554C36.8705 62.5554 38.6505 61.8235 39.9631 60.5206H39.9561C40.6069 59.8751 41.1232 59.1086 41.4755 58.2649C41.8277 57.4212 42.009 56.5168 42.009 55.6034C42.009 54.6901 41.8277 53.7857 41.4755 52.942C41.1232 52.0983 40.6069 51.3318 39.9561 50.6863C38.6428 49.3831 36.8618 48.6514 35.005 48.652C34.0856 48.6524 33.1753 48.8325 32.3261 49.1821C31.4768 49.5318 30.7052 50.0441 30.0553 50.6898C29.4055 51.3355 28.8901 52.102 28.5385 52.9455C28.187 53.789 28.0062 54.693 28.0066 55.6059C28.0072 57.4495 28.7455 59.2174 30.0588 60.5206C31.3714 61.8235 33.1585 62.5554 35.0145 62.5554ZM95.3334 89.8781C94.4794 89.5138 93.7071 88.9843 93.0614 88.3205L93.0544 88.3136C91.7419 87.0095 91.005 85.2411 91.0056 83.3975C91.0063 81.5539 91.7445 79.786 93.0579 78.4828C94.3713 77.1797 96.1523 76.4479 98.009 76.4485C99.8658 76.4492 101.646 77.1822 102.959 78.4863C103.627 79.1274 104.16 79.9013 104.527 80.7492C104.894 81.5971 105.087 82.5091 105.095 83.4319C105.103 84.3547 104.926 85.2699 104.574 86.124C104.222 86.9782 103.703 87.7541 103.045 88.4067C102.388 89.0592 101.607 89.5753 100.747 89.9248C99.8863 90.2742 98.9646 90.4501 98.0352 90.442C97.1059 90.434 96.1874 90.2423 95.3334 89.8781Z" fill="#B52022"/>
</svg>
